Coordinates
version=1
nRows=15
nColumns=42
inDegrees=yes

Units are S.I. units (second, meters, Newtons, ...)
If the header above contains a line with 'inDegrees', this indicates whether rotational values are in degrees (yes) or radians (no).

endheader
time	pelvis_tilt	pelvis_list	pelvis_rotation	pelvis_tx	pelvis_ty	pelvis_tz	hip_flexion_r	hip_adduction_r	hip_rotation_r	knee_angle_r	knee_adduction_r	knee_angle_r_beta	ankle_angle_r	subtalar_angle_r	mtp_angle_r	hip_flexion_l	hip_adduction_l	hip_rotation_l	knee_angle_l	knee_adduction_l	knee_angle_l_beta	ankle_angle_l	subtalar_angle_l	mtp_angle_l	lumbar_extension	lumbar_bending	lumbar_rotation	arm_flex_r	arm_add_r	arm_rot_r	elbow_flex_r	pro_sup_r	wrist_flex_r	wrist_dev_r	arm_flex_l	arm_add_l	arm_rot_l	elbow_flex_l	pro_sup_l	wrist_flex_l	wrist_dev_l
      0.00000000	     11.84946088	      5.70306747	     -1.65008624	     -1.11262726	      0.88905900	     -0.32848968	     -4.18007549	     -9.18155410	     -0.15909784	     71.95184008	      0.27099739	      1.25579651	     11.17999250	    -16.02619821	     -9.72590419	     -7.70745866	      7.13179099	     -9.51206449	     15.38385133	      4.65703673	      0.26849886	     16.13567891	     -7.87899273	     -9.72590419	    -24.43213723	     -9.25520805	     -3.00790560	     -3.42503026	     -1.74028538	    -21.26811167	     36.37427163	     90.00000001	      0.00000000	      0.00000000	     -1.22828738	     -5.24292256	    -24.79486728	     35.71587367	     90.00000001	      0.00000000	      0.00000000
      0.01000000	     11.83926414	      5.25998382	     -1.60125254	     -1.10247614	      0.89006097	     -0.32929816	     -2.48595776	     -8.62718076	      0.29408261	     71.78697574	      0.39833027	      1.25291909	     12.04766360	    -16.37361509	     -9.66335786	     -9.00936809	      6.70447263	     -9.38968919	     14.25088452	      4.86647087	      0.24872486	     16.41225153	     -7.32133564	     -9.66335786	    -24.47757382	     -8.70667829	     -3.25593248	     -3.57627560	     -1.80435659	    -21.55914132	     36.22324856	     90.00000001	      0.00000000	      0.00000000	     -0.85687653	     -5.19376863	    -24.35276224	     36.08232095	     90.00000001	      0.00000000	      0.00000000
      0.02000000	     11.92552911	      4.77091621	     -1.43446251	     -1.09226559	      0.89108895	     -0.33012618	     -1.06844240	     -7.98412585	      0.76941325	     71.15042737	      0.65373395	      1.24180922	     12.77630574	    -16.75071108	     -9.57826275	    -10.47262323	      6.22490987	     -9.06251132	     13.02214311	      5.06486170	      0.22727927	     16.47947009	     -7.11226504	     -9.57826275	    -24.63549592	     -8.07708990	     -3.56753396	     -3.70000617	     -1.81027945	    -22.15538789	     36.08315087	     90.00000001	      0.00000000	      0.00000000	     -0.55047974	     -5.24935371	    -23.45157816	     36.57498243	     90.00000001	      0.00000000	      0.00000000
      0.03000000	     11.77417289	      4.39904315	     -1.25926854	     -1.08222644	      0.89155211	     -0.33083499	      0.63276680	     -7.48781806	      1.02112843	     70.37669253	      0.74485907	      1.22830500	     13.46288205	    -16.86569083	     -9.52151494	    -11.60479048	      5.82544132	     -8.90537438	     11.90982362	      5.25788065	      0.20786564	     16.58918310	     -6.67684645	     -9.52151494	    -24.54719881	     -7.59372899	     -3.92580659	     -3.83360193	     -1.79172982	    -22.53713135	     35.94021339	     90.00000001	      0.00000000	      0.00000000	     -0.24789930	     -5.31755736	    -22.76910776	     37.09354910	     90.00000001	      0.00000000	      0.00000000
      0.04000000	     11.52320815	      4.17849444	     -0.99894601	     -1.07225865	      0.89164547	     -0.33184080	      2.36925734	     -7.19667880	      1.07446816	     69.33136531	      0.75157592	      1.21006060	     14.07908193	    -16.81804597	     -9.49099769	    -12.42064977	      5.67680851	     -9.16153127	     11.22130915	      5.08500817	      0.19584879	     16.69173715	     -6.29515893	     -9.49099769	    -24.36082657	     -7.21644350	     -4.43633368	     -4.02652907	     -1.84199771	    -22.74096402	     35.89571429	     90.00000001	      0.00000000	      0.00000000	      0.10436728	     -5.38112551	    -22.37369193	     37.52393027	     90.00000001	      0.00000000	      0.00000000
      0.05000000	     11.35091304	      3.82480054	     -0.83651017	     -1.06231709	      0.89169270	     -0.33234131	      3.94132457	     -6.68314163	      1.40464563	     67.99731675	      0.91263820	      1.18677706	     14.58406115	    -16.96806525	     -9.45320976	    -13.60066888	      5.30870611	     -8.94254728	      9.93592147	      5.18662303	      0.17341454	     16.82567463	     -5.40125895	     -9.45320976	    -24.25606137	     -6.78123105	     -4.78430407	     -4.08981380	     -1.78156356	    -23.15830167	     35.67632388	     90.00000001	      0.00000000	      0.00000000	      0.41450149	     -5.47297704	    -21.61312000	     38.11677142	     90.00000001	      0.00000000	      0.00000000
      0.06000000	     11.73738306	      3.28192519	     -0.52928982	     -1.05190340	      0.89234166	     -0.33281738	      4.59470364	     -5.95534461	      1.59146887	     66.05397474	      1.16244142	      1.15285934	     14.56603163	    -17.13981301	     -9.35170784	    -15.58455522	      4.60084731	     -8.57141810	      8.34231616	      5.56879994	      0.14560088	     16.70152337	     -4.71284925	     -9.35170784	    -24.73242496	     -6.08390977	     -5.13484363	     -4.06395605	     -1.58477388	    -24.52200567	     35.48083541	     90.00000001	      0.00000000	      0.00000000	      0.65453283	     -5.78721395	    -19.89729025	     38.80219751	     90.00000001	      0.00000000	      0.00000000
      0.07000000	     11.60733017	      3.06073505	     -0.30947312	     -1.04185762	      0.89199531	     -0.33334853	      5.94659795	     -5.64828927	      1.73067136	     64.22377778	      1.30647482	      1.12091638	     14.65937918	    -17.04928009	     -9.28744577	    -16.78590243	      4.32927704	     -8.68300280	      7.12954169	      5.66311384	      0.12443398	     16.78114428	     -3.69001364	     -9.28744577	    -24.66431735	     -5.77056716	     -5.55837838	     -4.10859590	     -1.50618713	    -25.03504006	     35.23255006	     90.00000001	      0.00000000	      0.00000000	      1.03868723	     -5.91364928	    -19.31919389	     39.30366333	     90.00000001	      0.00000000	      0.00000000
      0.08000000	     11.47040982	      2.87004088	     -0.13078678	     -1.03177435	      0.89138930	     -0.33378884	      7.24014965	     -5.37699396	      1.81130322	     62.19460861	      1.40462361	      1.08550070	     14.75924206	    -16.91415414	     -9.24072512	    -17.97672685	      4.07987281	     -9.02131673	      5.94013776	      5.78582313	      0.10367496	     16.83837054	     -2.51847612	     -9.24072512	    -24.58165992	     -5.51032911	     -5.92076045	     -4.16230959	     -1.43451201	    -25.50288933	     34.98691225	     90.00000001	      0.00000000	      0.00000000	      1.44539076	     -6.01336488	    -18.79161002	     39.81588027	     90.00000001	      0.00000000	      0.00000000
      0.09000000	     11.53902961	      2.62394538	      0.10085558	     -1.02154695	      0.89086850	     -0.33417120	      8.14839734	     -5.03691522	      1.81394784	     59.83975785	      1.49702789	      1.04440080	     14.61229485	    -16.75221834	     -9.18801761	    -19.41013597	      3.70897836	     -9.58574363	      4.75502640	      5.99346088	      0.08299087	     16.89878251	     -1.12229587	     -9.18801761	    -24.71623699	     -5.17467110	     -6.31717047	     -4.17285271	     -1.31980146	    -26.21018830	     34.79530439	     90.00000001	      0.00000000	      0.00000000	      1.82984633	     -6.17484231	    -18.10728686	     40.35991199	     90.00000001	      0.00000000	      0.00000000
      0.10000000	     11.57313242	      2.39375269	      0.30863181	     -1.01130357	      0.89005800	     -0.33446067	      9.03213903	     -4.72543948	      1.65156644	     57.34070302	      1.48613267	      1.00078406	     14.45934153	    -16.46361114	     -9.13338908	    -20.74291682	      3.33017023	    -10.45553394	      3.74374694	      6.25776495	      0.06534071	     17.02406980	      0.44733274	     -9.13338908	    -24.80463179	     -4.87552302	     -6.65130872	     -4.16950401	     -1.19154925	    -26.94296953	     34.56298906	     90.00000001	      0.00000000	      0.00000000	      2.21796115	     -6.33265486	    -17.38985586	     40.94572987	     90.00000001	      0.00000000	      0.00000000
      0.11000000	     11.70785311	      1.98019132	      0.56102687	     -1.00098305	      0.88920983	     -0.33448054	      9.66663412	     -4.14013981	      1.16759025	     54.54650293	      1.21197831	      0.95201607	     14.21640422	    -16.10236204	     -9.03946268	    -22.03228980	      2.64061946	    -12.02818205	      3.14691380	      6.64403373	      0.05492401	     17.50259736	      2.74413455	     -9.03946268	    -25.00179962	     -4.40265618	     -6.87269443	     -4.13927795	     -0.98244115	    -28.10513264	     34.39388766	     90.00000001	      0.00000000	      0.00000000	      2.62320252	     -6.55701111	    -16.42344044	     41.58049242	     90.00000001	      0.00000000	      0.00000000
      0.12000000	     11.71389565	      1.77681233	      0.67754022	     -0.99059997	      0.88794619	     -0.33455333	     10.44707995	     -3.83832525	      0.85373836	     51.79382004	      1.05628559	      0.90397269	     13.95917282	    -15.56477285	     -8.91761113	    -23.12992906	      2.23460325	    -13.90721919	      2.71441945	      7.02665714	      0.04737556	     18.05908973	      5.59137276	     -8.91761113	    -25.03541475	     -4.17476453	     -7.07446609	     -4.09887452	     -0.85604379	    -28.92601575	     34.04886091	     90.00000001	      0.00000000	      0.00000000	      2.97453431	     -6.73162248	    -15.67580272	     42.18937388	     90.00000001	      0.00000000	      0.00000000
      0.13000000	     11.74349628	      1.67520498	      0.79548973	     -0.98022182	      0.88656142	     -0.33466098	     11.08635869	     -3.67583275	      0.53991941	     48.86812111	      0.95429984	      0.85290961	     13.85555545	    -14.80413333	     -8.78754251	    -24.23419647	      1.94796350	    -15.72158877	      2.33398227	      7.40911444	      0.04073568	     18.44489016	      8.18396302	     -8.78754251	    -25.10999626	     -4.05744094	     -7.29928711	     -4.05652794	     -0.74590248	    -29.58139224	     33.72961647	     90.00000001	      0.00000000	      0.00000000	      3.32757460	     -6.92191656	    -14.96981187	     42.85458591	     90.00000001	      0.00000000	      0.00000000
      0.14000000	     11.80329934	      1.64089990	      0.84302515	     -0.96992203	      0.88507649	     -0.33468284	     11.60044878	     -3.59696977	      0.31558555	     45.81512965	      0.92557052	      0.79962486	     13.93871940	    -13.76805438	     -8.73108974	    -25.41891487	      1.77700025	    -17.11029648	      1.82749135	      7.81872177	      0.03189574	     18.52456690	     10.01096552	     -8.73108974	    -25.22311518	     -4.04063613	     -7.49099457	     -3.95574311	     -0.67505137	    -30.05225978	     33.40582848	     90.00000001	      0.00000000	      0.00000000	      3.65799354	     -7.15025710	    -14.22451295	     43.58989924	     90.00000001	      0.00000000	      0.00000000
